<?xml version="1.0" encoding="UTF-8"?>
<!DOCTYPE svg PUBLIC "-//W3C//DTD SVG 1.1//EN" "http://www.w3.org/Graphics/SVG/1.1/DTD/svg11.dtd">
<svg xmlns="http://www.w3.org/2000/svg" xml:space="preserve" width="1.47901in" height="0.249331in" version="1.1" style="shape-rendering:geometricPrecision; text-rendering:geometricPrecision; image-rendering:optimizeQuality; fill-rule:evenodd; clip-rule:evenodd"
viewBox="0 0 1479.01 249.33"
 xmlns:xlink="http://www.w3.org/1999/xlink"
 xmlns:xodm="http://www.corel.com/coreldraw/odm/2003">
 <defs>
  <style type="text/css">
   <![CDATA[
    .fil0 {fill:#326ae9;fill-rule:nonzero}
   ]]>
  </style>
 </defs>
 <g id="Layer_x0020_1">
  <metadata id="CorelCorpID_0Corel-Layer"/>
  <path class="fil0" d="M45.5 1.99c3.33,0 6.17,1.17 8.5,3.5 2.33,2.33 3.5,5.17 3.5,8.5l0 24.33c0,3.33 -1.17,6.17 -3.5,8.5 -2.33,2.33 -5.17,3.5 -8.5,3.5l-34.33 0c-3.11,0 -5.83,-1.17 -8.17,-3.5 -2.33,-2.33 -3.5,-5.17 -3.5,-8.5l0 -24.33c0,-3.33 1.17,-6.17 3.5,-8.5 2.33,-2.33 5.06,-3.5 8.17,-3.5l34.33 0zm149 0c3.11,0 5.83,1.17 8.17,3.5 2.33,2.33 3.5,5.17 3.5,8.5l0 24.33c0,3.33 -1.17,6.17 -3.5,8.5 -2.33,2.33 -5.06,3.5 -8.17,3.5l-67 0 0 189.33c0,3.11 -1.17,5.83 -3.5,8.17 -2.33,2.33 -5.06,3.5 -8.17,3.5l-25.67 0c-3.33,0 -6.17,-1.17 -8.5,-3.5 -2.33,-2.33 -3.5,-5.06 -3.5,-8.17l0 -225.67c0,-3.33 1.17,-6.17 3.5,-8.5 2.33,-2.33 5.17,-3.5 8.5,-3.5l104.33 0zm54.94 85.33c-3.11,0 -5.83,-1.17 -8.11,-3.5 -2.33,-2.33 -3.5,-5.06 -3.5,-8.17l0 -62c0,-3.11 1.17,-5.83 3.5,-8.17 2.28,-2.33 5,-3.5 8.11,-3.5l25.11 0c3.33,0 6.11,1.17 8.28,3.5 2.22,2.33 3.33,5.06 3.33,8.17l0 62c0,3.11 -1.11,5.83 -3.33,8.17 -2.17,2.33 -4.94,3.5 -8.28,3.5l-25.11 0zm180.78 -85.33c3.11,0 5.83,1.17 8.11,3.5 2.33,2.33 3.5,5.06 3.5,8.17l0 224c0,3.11 -1.17,5.83 -3.5,8.17 -2.28,2.33 -5,3.5 -8.11,3.5l-25.11 0c-3.33,0 -6.11,-1.17 -8.28,-3.5 -2.22,-2.33 -3.33,-5.06 -3.33,-8.17l0 -88 -107.33 0 0 88c0,3.11 -1.11,5.83 -3.33,8.17 -2.17,2.33 -4.94,3.5 -8.28,3.5l-25.11 0c-3.11,0 -5.83,-1.17 -8.11,-3.5 -2.33,-2.33 -3.5,-5.06 -3.5,-8.17l0 -124.67c0,-3.11 1.17,-5.83 3.5,-8.17 2.33,-2.33 5.06,-3.5 8.17,-3.5l144 0 0 -87.67c0,-3.11 1.11,-5.83 3.33,-8.17 2.17,-2.33 4.94,-3.5 8.28,-3.5l25.11 0zm242.28 199.67c3.33,0 6.11,1.17 8.33,3.5 2.22,2.28 3.33,5.11 3.33,8.39l0 24.17c0,3.11 -1.11,5.83 -3.33,8.11 -2.22,2.33 -5,3.5 -8.33,3.5l-164.67 0c-3.11,0 -5.83,-1.17 -8.17,-3.5 -2.33,-2.28 -3.5,-5 -3.5,-8.11l0 -24.17c0,-3.28 1.17,-6.11 3.5,-8.39 2.33,-2.33 5.06,-3.5 8.17,-3.5l164.67 0zm-164.67 -52c-3.11,0 -5.83,-1.17 -8.17,-3.5 -2.33,-2.33 -3.5,-5.06 -3.5,-8.17l0 -25c0,-3.11 1.17,-5.83 3.5,-8.17 2.33,-2.33 5.06,-3.5 8.17,-3.5l149.67 0c3.33,0 6.17,1.17 8.5,3.5 2.33,2.33 3.5,5.06 3.5,8.17l0 25c0,3.11 -1.17,5.83 -3.5,8.17 -2.33,2.33 -5.17,3.5 -8.5,3.5l-149.67 0zm164.67 -147.67c3.33,0 6.11,1.17 8.33,3.5 2.22,2.28 3.33,5 3.33,8.06l0 24.17c0,3.33 -1.11,6.17 -3.33,8.44 -2.22,2.33 -5,3.5 -8.33,3.5l-164.67 0c-3.11,0 -5.83,-1.17 -8.17,-3.5 -2.33,-2.28 -3.5,-5.11 -3.5,-8.44l0 -24.17c0,-3.06 1.17,-5.78 3.5,-8.06 2.33,-2.33 5.06,-3.5 8.17,-3.5l164.67 0zm341.33 231c1.56,3.56 1.22,7.22 -1,11 -2.44,3.56 -5.67,5.33 -9.67,5.33l-222 0c-4.22,0 -7.44,-1.78 -9.67,-5.28 -2.44,-3.56 -2.78,-7.17 -1,-10.94l10.33 -24.17c0.89,-2.22 2.28,-3.94 4.17,-5.28 1.89,-1.33 4.06,-2 6.5,-2l155.33 0 -10 -24.06 -44.67 -106.83 -44.67 106.83c-0.89,2.22 -2.28,3.94 -4.17,5.17 -1.89,1.22 -4.06,1.89 -6.5,1.89l-28 0c-4.22,0 -7.56,-1.83 -10,-5.39 -2.22,-3.33 -2.56,-7 -1,-11l67.67 -158.94c0.89,-2.44 2.28,-4.28 4.17,-5.5 1.89,-1.22 4.06,-1.83 6.5,-1.83l32 0c5.11,0 8.67,2.44 10.67,7.33l95 223.67zm141.83 -231c26.39,0 47.67,7.56 63.89,22.67 16.17,15.33 24.28,35.67 24.28,61 0,25.33 -8.11,45.67 -24.33,61 -15.78,14.89 -37.11,22.33 -64,22.33l-63.67 0 0 68c0,3.11 -1.17,5.83 -3.5,8.17 -2.28,2.33 -5,3.5 -8.11,3.5l-25.11 0c-3.11,0 -5.83,-1.17 -8.11,-3.5 -2.33,-2.33 -3.5,-5.06 -3.5,-8.17l0 -103.33c0,-3.11 1.17,-5.83 3.5,-8.17 2.33,-2.33 5.06,-3.5 8.17,-3.5l98.67 0c14.89,0 25.56,-3.22 32,-9.61 6.44,-5.78 9.67,-14.61 9.67,-26.56 0,-11.5 -3.22,-20.33 -9.67,-26.56 -6.89,-6.39 -17.56,-9.61 -32,-9.61l-98.67 0c-3.11,0 -5.83,-1.17 -8.17,-3.5 -2.33,-2.39 -3.5,-5.11 -3.5,-8.28l0 -24.17c0,-3.11 1.17,-5.83 3.5,-8.22 2.33,-2.33 5.06,-3.5 8.17,-3.5l100.5 0zm234.67 0c26.39,0 47.67,7.56 63.89,22.67 16.17,15.33 24.28,35.67 24.28,61 0,25.33 -8.11,45.67 -24.33,61 -15.78,14.89 -37.11,22.33 -64,22.33l-63.67 0 0 68c0,3.11 -1.17,5.83 -3.5,8.17 -2.28,2.33 -5,3.5 -8.11,3.5l-25.11 0c-3.11,0 -5.83,-1.17 -8.11,-3.5 -2.33,-2.33 -3.5,-5.06 -3.5,-8.17l0 -103.33c0,-3.11 1.17,-5.83 3.5,-8.17 2.33,-2.33 5.06,-3.5 8.17,-3.5l98.67 0c14.89,0 25.56,-3.22 32,-9.61 6.44,-5.78 9.67,-14.61 9.67,-26.56 0,-11.5 -3.22,-20.33 -9.67,-26.56 -6.89,-6.39 -17.56,-9.61 -32,-9.61l-98.67 0c-3.11,0 -5.83,-1.17 -8.17,-3.5 -2.33,-2.39 -3.5,-5.11 -3.5,-8.28l0 -24.17c0,-3.11 1.17,-5.83 3.5,-8.22 2.33,-2.33 5.06,-3.5 8.17,-3.5l100.5 0z"/>
 </g>
</svg>
